
<svg xmlns="http://www.w3.org/2000/svg" width="64" height="32" viewBox="0 0 64 32">
    <path fill="#0C9" fill-rule="evenodd" d="M3.476 13.533c1.04 0 1.905.531 2.309 1.105v-.962H7.37v7.18H6.294c-.282 0-.51-.226-.51-.506v-.455C5.382 20.469 4.516 21 3.477 21 1.501 21 0 19.32 0 17.266c0-2.053 1.5-3.733 3.476-3.733zm20.858-3.447v10.77h-1.077c-.28 0-.509-.226-.509-.506v-.455c-.404.574-1.27 1.105-2.308 1.105-1.977 0-3.477-1.68-3.477-3.734 0-2.053 1.5-3.733 3.477-3.733 1.038 0 1.904.531 2.308 1.105v-4.552h1.586zm10.192 3.447c2.136 0 3.78 1.651 3.78 3.734 0 2.081-1.644 3.733-3.78 3.733-2.134 0-3.779-1.652-3.779-3.733 0-2.083 1.645-3.734 3.78-3.734zm15.328-3.447v10.77h-1.078c-.281 0-.509-.226-.509-.506v-.455c-.404.574-1.27 1.105-2.308 1.105-1.976 0-3.476-1.68-3.476-3.734 0-2.053 1.5-3.733 3.476-3.733 1.039 0 1.904.531 2.308 1.105v-4.552h1.587zm3.774 1.543v2.008h2.118v.953h-2.118v4.173c0 .881.392 1.228 1.204 1.228.29 0 .682-.058.914-.159v.91c-.334.13-.682.187-1.074.187-1.232 0-2.06-.708-2.06-2.08v-4.26H51.06v-.952h1.553v-2.008h1.015zm3.917 2.008L60.2 19.37l2.654-5.733H64l-3.394 7.22h-.798l-3.394-7.22h1.131zm-44.592-.104c1.673 0 2.755 1.177 2.755 3.001v4.322H14.63c-.28 0-.509-.227-.509-.506v-3.557c0-1.135-.577-1.824-1.5-1.824-1.053 0-1.86.819-1.86 2.355v3.532H9.68c-.28 0-.508-.227-.508-.506v-6.674h1.587v.977c.433-.718 1.255-1.12 2.193-1.12zm16.675.071c.201 0 .404.015.62.058v1.623c-.275-.087-.505-.13-.793-.13-.909 0-1.731.762-1.731 2.198v3.503h-1.078c-.281 0-.51-.227-.51-.506v-6.674h1.587v1.278c.274-.818 1.082-1.35 1.905-1.35zm11.55.072v7.18h-1.077c-.281 0-.509-.227-.509-.506v-6.674h1.587zM3.766 14.969c-1.284 0-2.15 1.005-2.15 2.297 0 1.293.866 2.298 2.15 2.298 1.284 0 2.15-1.005 2.15-2.298 0-1.292-.866-2.297-2.15-2.297zm16.964 0c-1.284 0-2.15 1.005-2.15 2.297 0 1.293.866 2.298 2.15 2.298 1.283 0 2.148-1.005 2.148-2.298 0-1.292-.865-2.297-2.148-2.297zm25.519 0c-1.284 0-2.15 1.005-2.15 2.297 0 1.293.866 2.298 2.15 2.298 1.284 0 2.15-1.005 2.15-2.298 0-1.292-.866-2.297-2.15-2.297zm-11.722.029c-1.283 0-2.177.991-2.177 2.269 0 1.277.894 2.269 2.177 2.269 1.27 0 2.165-.992 2.165-2.27 0-1.277-.895-2.268-2.165-2.268zM40.386 10c.59 0 1.052.474 1.052 1.048 0 .59-.462 1.063-1.053 1.063-.577 0-1.067-.473-1.067-1.063 0-.574.49-1.048 1.067-1.048z"/>
</svg>
