
<svg xmlns="http://www.w3.org/2000/svg" width="64" height="32" viewBox="0 0 64 32">
    <path fill="#0C9" fill-rule="evenodd" d="M41.987 10.898c-1.113 0-2.014.892-2.014 1.992v7.057c0 1.105.9 1.995 2.014 1.995 1.113 0 2.013-.89 2.013-1.995V12.89c0-1.1-.9-1.992-2.013-1.992zm-19.974 0C20.9 10.898 20 11.79 20 12.89v7.057c0 1.105.9 1.995 2.013 1.995s2.014-.89 2.014-1.995V12.89c.001-1.1-.9-1.992-2.014-1.992zm13.993-5.934l1.21-2.163c.15-.26.051-.587-.21-.732-.265-.147-.597-.052-.742.21l-1.242 2.213c-.925-.367-1.945-.574-3.022-.574-1.077 0-2.097.206-3.022.572l-1.242-2.21c-.142-.261-.474-.356-.742-.21-.261.145-.357.473-.21.733l1.21 2.162c-2.177 1.228-3.632 3.423-3.632 5.933 0 .017 0 .033.003.053-.003.01-.003.02-.003.03v.001h15.274v-.001-.03-.053c.002-2.51-1.453-4.703-3.63-5.934zM28.474 8.03c-.298 0-.542-.243-.542-.54 0-.295.243-.538.542-.538.3 0 .548.241.548.539-.002.296-.248.539-.548.539zm7.052 0c-.3 0-.544-.243-.544-.54 0-.295.242-.538.544-.538.298 0 .542.241.542.539 0 .296-.243.539-.542.539zM24.362 22.443c0 1.007.827 1.825 1.848 1.825h.923v3.74c0 1.102.903 1.992 2.013 1.992 1.11 0 2.013-.89 2.013-1.991v-3.741h1.678v3.74c0 1.102.9 1.992 2.01 1.992 1.117 0 2.017-.89 2.017-1.991v-3.741h.923c1.02 0 1.848-.816 1.848-1.825v-11.05H24.362v11.05z"/>
</svg>
