
<svg xmlns="http://www.w3.org/2000/svg" width="68" height="32" viewBox="0 0 68 32">
    <path fill="#0C9" fill-rule="evenodd" d="M23.47 7.85c.908-1.075 1.358-2.455 1.256-3.85-1.392.132-2.677.793-3.583 1.841-.91 1.014-1.373 2.344-1.284 3.695 1.405.027 2.743-.597 3.611-1.686m1.17 1.94c-1.998-.114-3.682 1.123-4.639 1.123-.956 0-2.412-1.061-3.982-1.033-2.093.058-3.996 1.206-4.996 3.015-2.142 3.65-.571 9.09 1.513 12.062 1.013 1.413 2.227 3.096 3.84 3.042 1.613-.055 2.112-.983 3.954-.983 1.841 0 2.383.983 3.982.948 1.599-.036 2.712-1.416 3.712-2.95.72-1.047 1.283-2.191 1.67-3.398-1.961-.854-3.23-2.76-3.24-4.87.023-1.861 1.007-3.584 2.612-4.572-1.017-1.43-2.653-2.313-4.426-2.387m12.748-2.831v4.01h3.254v2.646h-3.254v9.486c0 1.415.642 2.137 2.07 2.137.39-.007.782-.035 1.17-.084v2.668c-.637.101-1.282.148-1.927.14-3.369 0-4.668-1.287-4.668-4.516v-9.768h-2.555v-2.654h2.484V6.96l3.426-.003zm14.631 20.857H48.45l-5.995-16.792h3.554l4.211 13.492h.086l4.211-13.492H58l-5.981 16.792z"/>
</svg>
