
<svg xmlns="http://www.w3.org/2000/svg" width="60" height="60" viewBox="0 0 64 32">
    <path fill="#DDD" fill-rule="evenodd" d="M42.56 22.703c-.377.839-.823 1.61-1.34 2.32-.705.968-1.283 1.638-1.727 2.01-.689.609-1.428.922-2.22.94-.566 0-1.251-.156-2.049-.471-.8-.315-1.535-.469-2.208-.469-.704 0-1.46.154-2.27.469-.808.315-1.46.48-1.96.496-.758.031-1.515-.29-2.269-.965-.482-.404-1.084-1.098-1.807-2.08-.774-1.048-1.41-2.266-1.908-3.651-.534-1.5-.802-2.949-.802-4.353 0-1.607.36-2.995 1.084-4.157.569-.934 1.325-1.67 2.27-2.21.945-.542 1.968-.819 3.07-.837.603 0 1.394.18 2.374.533.98.354 1.61.533 1.884.533.207 0 .904-.21 2.09-.629 1.119-.387 2.063-.548 2.837-.485 2.1.163 3.675.959 4.723 2.393-1.876 1.095-2.803 2.627-2.785 4.593.016 1.531.594 2.805 1.728 3.817.514.47 1.087.832 1.725 1.09-.14.387-.286.757-.44 1.113zM37.747 4.481c0 1.2-.456 2.321-1.363 3.358-1.097 1.232-2.422 1.945-3.858 1.833-.018-.144-.028-.295-.028-.454 0-1.153.52-2.386 1.447-3.395.462-.51 1.05-.935 1.762-1.274.711-.333 1.383-.517 2.015-.549.017.162.025.322.025.481z"/>
</svg>
