
<svg xmlns="http://www.w3.org/2000/svg" width="60" height="60" viewBox="0 0 68 32">
    <g fill="none" fill-rule="evenodd">
        <path d="M0 0H32V32H0z" transform="translate(18)"/>
        <path fill="#111" d="M24 27c.552 0 1 .448 1 1s-.448 1-1 1H8c-.552 0-1-.448-1-1s.448-1 1-1zm4.667-24C29.955 3 31 4.045 31 5.333v17.334C31 23.955 29.955 25 28.667 25H3.333C2.045 25 1 23.955 1 22.667V5.333C1 4.045 2.045 3 3.333 3zm0 2H3.333C3.15 5 3 5.15 3 5.333v17.334c0 .184.15.333.333.333h25.334c.184 0 .333-.15.333-.333V5.333C29 5.15 28.85 5 28.667 5z" transform="translate(18)"/>
    </g>
</svg>
